<svg xmlns="http://www.w3.org/2000/svg" width="422" height="422" style="width:100%;height:100%;content-visibility:visible" viewBox="0 0 1024 1024"><g clip-path="url(#a)"><g clip-path="url(#b)" display="block" transform="translate(-3804 -2574) scale(4.242)"><g display="block"><path fill="#000072" d="M1988 1271h-1v-1h1zm-1-1v1zm0 0z"/><path fill="#000072" d="M1988 1271h-1v-1h1zm-1-1v1zm0 0z"/><path fill="#FFDF81" d="m1099 673-15 12H938c-18-20 4-43 20-30 0-7 9-12 14-9 4-13 16-17 23-9 10-14 41-14 48 8 9-8 22-6 22 7 13-7 33 2 34 21"/><path fill="#FFF" d="M1022 658c2 2 0 5-2 4l-5-1c-7 0-10 5-12 8a2 2 0 0 1-2 2 2 2 0 0 1-1-1c-2-2-4-4-7-2l-2 3h-1s-1-5 3-8c5-3 8 4 9 4s2-11 13-11l7 2"/><path fill="#000072" d="M989 671v-4l1-4 4-3a6 6 0 0 1 3 0 9 9 0 0 1 2 1l4 3v1s1 0 0 0a2 2 0 0 0-1 0 2 2 0 0 0-1 0h-1a2 2 0 0 0 0 1v-1l5-8a13 13 0 0 1 7-3 17 17 0 0 1 9 1 11 11 0 0 1 6 6l-1 8a1 1 0 0 1-2 0c1-2 0-5-1-7a8 8 0 0 0-1-2h-1v-1a3 3 0 0 0-1 0h-1l-3-1h-3l-5 3-3 5v1a9 9 0 0 1 0 1h-1a4 4 0 0 1 0 1 3 3 0 0 1-2 1 3 3 0 0 1-1-1h-1v-1l-1-1-2-2-2-1-2 1-2 6a1 1 0 0 1-2 0"/><path fill="#FF2B4A" d="M980 685h118c7 0 12 6 11 12l-12 116c-1 12-11 20-22 20h-79"/><path fill="#FFF" d="m1089 706-14 111a2 2 0 0 1-2 2h-12a2 2 0 0 1-2-2l12-112a2 2 0 0 1 2-2h14a2 2 0 0 1 2 3"/><path fill="#000072" d="m1109 695-12 116c-1 12-11 20-22 20h-79l-16-148h2l14 134h79c11 0 21-9 22-20l11-107a11 11 0 0 1 1 5"/><path fill="#FFF" d="M1109 696v5c-2-4-6-8-11-8h-44c-2-5-7-9-13-9h57c7 0 12 6 11 12"/><path fill="#000072" d="M1075 837h-79a4 4 0 1 1 0-7h79c10 0 18-8 19-17l11-116a8 8 0 0 0-1-6 8 8 0 0 0-6-2H980a4 4 0 1 1 0-8h118a15 15 0 0 1 11 5 15 15 0 0 1 4 12l-12 116a26 26 0 0 1-26 23"/><path fill="#FF2B4A" d="M1022 833h-61c-11 0-21-8-22-20l-12-116c-1-6 4-12 11-12h104c7 0 13 6 12 14l-12 116c-1 11-10 18-20 18"/><path fill="#FFF" d="M979 705v112a2 2 0 0 1-2 2h-14l-2-2-6-112a2 2 0 0 1 2-2h20a2 2 0 0 1 2 2m48 0-6 112a2 2 0 0 1-3 2h-13a2 2 0 0 1-2-2V705a2 2 0 0 1 2-2h20a2 2 0 0 1 2 2"/><path fill="#000072" d="m1054 697-12 116c-1 11-10 18-20 18h-61c-11 0-21-8-22-20l-12-116 1-5 11 107c1 11 11 20 22 20h61c10 0 19-8 20-18l11-108a13 13 0 0 1 1 6"/><path fill="#FFF" d="M1054 698v4c-2-5-7-9-13-9H938c-5 0-9 4-11 8v-5c-1-6 4-12 11-12h103a13 13 0 0 1 13 14"/><path fill="#000072" d="M1022 837h-61a26 26 0 0 1-26-23l-12-116a15 15 0 0 1 4-12 15 15 0 0 1 11-5h104c4 0 9 2 12 5a17 17 0 0 1 4 13l-12 117a24 24 0 0 1-24 21m-84-148a8 8 0 0 0-5 2 8 8 0 0 0-2 6l12 116a19 19 0 0 0 18 17h61c9 0 16-7 16-15l12-116a9 9 0 0 0-2-7 9 9 0 0 0-6-3z"/><path fill="#000072" d="M938 689a4 4 0 0 1-3-2c-11-12-9-26-2-33s15-8 23-5c2-4 6-7 10-8 7-1 12 3 14 9a4 4 0 1 1-7 3c-1-4-4-4-5-4-3 0-6 3-6 6a4 4 0 0 1-6 3c-6-5-13-3-17 1-5 5-6 14 2 23a4 4 0 0 1-3 7"/><path fill="#000072" d="M972 650h-1a4 4 0 0 1-2-5c2-9 9-15 16-16 7 0 14 4 17 11a4 4 0 0 1-7 3c-2-4-5-6-9-6-5 0-8 4-10 10a4 4 0 0 1-4 3"/><path fill="#000072" d="M1065 660h-1a4 4 0 0 1-3-4c1-6 0-9-3-11s-8-1-13 3a4 4 0 0 1-6-2c-4-11-14-14-19-15-9-1-18 2-22 8a4 4 0 1 1-6-5c5-8 17-12 30-10 10 1 18 7 23 15 6-3 12-3 17-1 6 4 8 11 7 19a4 4 0 0 1-4 3"/><path fill="#000072" d="M1099 677a4 4 0 0 1-4-4c0-10-6-15-10-17-5-3-13-4-18-1a4 4 0 1 1-4-7c8-4 18-3 26 2 9 5 14 13 14 23a4 4 0 0 1-4 4"/></g></g></g></svg>