<svg xmlns="http://www.w3.org/2000/svg" viewBox="595 345 50 200" width="256" height="256" style="width:100%;height:100%;transform:translate3d(0,0,0);content-visibility:visible"><g style="display:block"><path fill="#792937" d="m1205.491 770.551-.013-.007s0-.007.007-.007c0 0 .007.007.007.013"/><path fill="#000072" d="m1205.8 771.149-.634-.317v-.502l.455-.007.173.191zm-.317-.497v.292zm-.304-.005h.29z"/><path fill="#792937" d="m1205.491 770.551-.013-.007s0-.007.007-.007c0 0 .007.007.007.013"/><path fill="#000072" d="m1205.8 771.149-.634-.317v-.502l.455-.007.173.191zm-.317-.497v.292zm-.304-.005h.29z"/><path fill="#ffdf81" d="M666.816 408.372s-7.386 5.223-9.147 7.419l-88.533-.342c-11.115-12.167 2.444-25.892 12.153-17.858-.128-4.6 5.115-7.641 8.637-5.712 2.163-7.988 9.267-10.024 13.646-5.691-.007 0-.007.007-.007.007l.013.007c0-.007-.007-.013-.007-.013 5.846-8.517 24.754-8.343 29.107 5.103 5.531-4.687 13.205-3.689 13.466 3.95 7.814-3.877 20.195 1.199 20.671 13.13"/><path fill="#fff" d="M620.178 399.211c1.225.993.057 2.88-1.404 2.287-.809-.33-1.792-.529-2.976-.549-4.443-.074-6.236 2.885-7.074 4.952a1.37 1.37 0 0 1-1.181.855 1.34 1.34 0 0 1-1.034-.391c-1.06-1.077-2.595-2.151-4.353-.922-.647.453-1.038 1.064-1.266 1.703l-.197.011s-.704-3.302 1.463-4.819c2.981-2.086 5.33 2.462 5.791 2.408s1.068-7.014 7.85-6.902c1.978.033 3.393.568 4.38 1.367"/><path fill="#000072" d="M600.188 407.263a6.7 6.7 0 0 1-.351-2.459c.066-.846.28-1.782.881-2.579.61-.775 1.395-1.418 2.529-1.643a3.8 3.8 0 0 1 1.661.074 5.2 5.2 0 0 1 1.384.613c.804.51 1.406 1.135 1.944 1.708l.372.4c.054.057.105.107.139.137.007.004.026.019.005-.002a1 1 0 0 0-.304-.178 1.34 1.34 0 0 0-.698-.084 1.37 1.37 0 0 0-.75.332l-.082.077a.9.9 0 0 0-.177.222c-.02.035-.013.018-.019.03l-.018.033.049-.145.164-.51c.467-1.496 1.21-3.13 2.478-4.433.631-.648 1.378-1.221 2.209-1.622.828-.409 1.723-.636 2.595-.741.877-.107 1.731-.073 2.568.03a9.6 9.6 0 0 1 2.513.698c.803.406 1.595.902 2.175 1.626.584.699 1.04 1.497 1.262 2.338.445 1.674.339 3.372-.308 4.875a.52.52 0 0 1-.994-.277l.004-.025c.188-1.353-.023-2.769-.55-3.899a4.6 4.6 0 0 0-1.067-1.424l-.333-.271-.374-.216a1.7 1.7 0 0 0-.386-.194l-.401-.171a7 7 0 0 0-1.816-.301c-.643-.035-1.284-.025-1.88.088-1.193.225-2.204.741-2.993 1.597-.791.865-1.344 1.993-1.81 3.307l-.197.545a6 6 0 0 1-.152.374l-.08.158-.052.091a2 2 0 0 1-.259.335s-.05.051-.095.088a1.7 1.7 0 0 1-.826.375 1.7 1.7 0 0 1-.801-.101 2 2 0 0 1-.371-.203l-.164-.131c-.091-.081-.139-.132-.198-.192a7 7 0 0 1-.238-.274l-.357-.444c-.434-.548-.861-1.017-1.287-1.349-.427-.344-.792-.508-1.142-.498-.349-.014-.882.216-1.244.551-.776.662-1.137 2.101-1.147 3.446l-.001.05a.52.52 0 0 1-1.012.166"/><path fill="#ff2b4a" d="M594.708 415.449h71.3c4.125 0 7.344 3.568 6.921 7.671l-7.234 70.231a13.664 13.664 0 0 1-13.592 12.264h-48.101"/><path fill="#fff" d="m660.745 428.021-8.508 67.742a1.444 1.444 0 0 1-1.431 1.262h-7.249a1.435 1.435 0 0 1-1.426-1.594l7.544-67.748a1.435 1.435 0 0 1 1.427-1.276h8.218a1.435 1.435 0 0 1 1.424 1.614"/><path fill="#000072" d="m672.929 421.881-7.232 70.227c-.723 6.97-6.589 12.267-13.592 12.267h-48.103l-9.294-90.166h.91l8.384 81.301h48.103c7.003 0 12.869-5.296 13.592-12.267l6.683-64.876a6.94 6.94 0 0 1 .549 3.515"/><path fill="#fff" d="m672.929 422.502-.295 2.846a6.96 6.96 0 0 0-6.629-4.827h-26.703c-.904-3.254-3.89-5.691-7.492-5.691h34.196c4.125 0 7.345 3.569 6.923 7.673"/><path fill="#000072" d="M652.103 507.96h-48.101a2.344 2.344 0 1 1 0-4.687h48.101a11.29 11.29 0 0 0 11.261-10.161l7.234-70.231a4.56 4.56 0 0 0-1.164-3.564 4.56 4.56 0 0 0-3.426-1.523h-71.3a2.344 2.344 0 1 1 0-4.687h71.3a9.32 9.32 0 0 1 6.906 3.07 9.32 9.32 0 0 1 2.346 7.184l-7.234 70.232a15.967 15.967 0 0 1-15.924 14.367"/><path fill="#ff2b4a" d="M619.997 505.618h-36.953a13.664 13.664 0 0 1-13.592-12.264l-7.237-70.237c-.423-4.103 2.796-7.671 6.921-7.671h62.676c4.613 0 8.212 3.99 7.739 8.579l-7.264 70.503a12.356 12.356 0 0 1-12.291 11.09"/><path fill="#fff" d="M593.894 427.853v67.727a1.444 1.444 0 0 1-1.445 1.446h-7.531q-.368 0-.731-.02c-.724-.04-1.292-.638-1.333-1.361l-3.808-67.711a1.444 1.444 0 0 1 1.443-1.526h11.96a1.444 1.444 0 0 1 1.445 1.446m29.11.081-3.814 67.727a1.445 1.445 0 0 1-1.443 1.364h-8.101a1.445 1.445 0 0 1-1.446-1.446v-67.727a1.445 1.445 0 0 1 1.446-1.446h11.915a1.445 1.445 0 0 1 1.443 1.527"/><path fill="#000072" d="m639.551 422.784-7.265 70.501a12.35 12.35 0 0 1-12.287 11.089h-36.955c-7.004 0-12.877-5.296-13.593-12.26l-7.238-70.24a6.85 6.85 0 0 1 .549-3.495l6.689 64.937c.717 6.963 6.589 12.26 13.593 12.26h36.955a12.35 12.35 0 0 0 12.287-11.088l6.743-65.412a7.7 7.7 0 0 1 .522 3.709"/><path fill="#fff" d="m639.551 423.406-.275 2.698c-.944-3.2-3.904-5.585-7.466-5.585h-62.673a6.97 6.97 0 0 0-6.629 4.821l-.295-2.846c-.421-4.098 2.799-7.667 6.923-7.667h62.673c3.602 0 6.589 2.438 7.492 5.691a7.5 7.5 0 0 1 .248 2.886"/><path fill="#000072" d="M619.997 507.962h-36.952a15.967 15.967 0 0 1-15.924-14.367l-7.237-70.237a9.32 9.32 0 0 1 2.346-7.184 9.32 9.32 0 0 1 6.906-3.07h62.676a10.14 10.14 0 0 1 7.518 3.342 10.13 10.13 0 0 1 2.553 7.82l-7.264 70.502a14.66 14.66 0 0 1-14.622 13.193m-50.86-90.171a4.56 4.56 0 0 0-3.426 1.523 4.56 4.56 0 0 0-1.164 3.564l7.237 70.237a11.293 11.293 0 0 0 11.261 10.161h36.952a9.99 9.99 0 0 0 9.96-8.987l7.264-70.503a5.38 5.38 0 0 0-1.371-4.2 5.38 5.38 0 0 0-4.037-1.795z"/><path fill="#000072" d="M569.137 417.791a2.34 2.34 0 0 1-1.731-.763c-6.898-7.549-5.432-15.826-1.15-20.323 3.722-3.909 8.912-4.889 13.49-2.825 1.275-2.63 3.877-4.361 6.401-4.81 3.882-.689 7.25 1.42 8.579 5.376a2.344 2.344 0 1 1-4.443 1.493c-.746-2.218-2.213-2.449-3.316-2.254-1.684.299-3.392 1.818-3.336 3.841a2.343 2.343 0 0 1-3.837 1.87c-3.721-3.079-7.776-1.948-10.144.54-2.924 3.071-3.682 8.569 1.216 13.93a2.344 2.344 0 0 1-1.73 3.925"/><path fill="#000072" d="M589.931 394.226q-.304 0-.613-.082a2.344 2.344 0 0 1-1.651-2.874c1.506-5.569 5.341-9.257 10.007-9.624 4.277-.34 8.172 2.266 10.195 6.785a2.344 2.344 0 0 1-4.278 1.915c-1.208-2.7-3.281-4.21-5.55-4.027-2.634.207-4.875 2.573-5.848 6.174a2.35 2.35 0 0 1-2.261 1.732"/><path fill="#000072" d="M645.908 400.605q-.206 0-.414-.036a2.344 2.344 0 0 1-1.896-2.718c.578-3.241-.031-5.56-1.712-6.527-1.97-1.133-5.133-.412-7.69 1.753a2.344 2.344 0 0 1-3.745-1.067c-2.281-7.05-8.744-8.714-11.417-9.101-5.551-.805-11.117 1.09-13.532 4.611a2.344 2.344 0 1 1-3.865-2.651c3.439-5.016 10.699-7.665 18.07-6.598 6.274.91 11.325 4.374 14.013 9.471 3.567-1.952 7.529-2.191 10.503-.479 3.471 1.998 4.925 6.157 3.99 11.412a2.345 2.345 0 0 1-2.304 1.933"/><path fill="#000072" d="M666.814 410.716a2.344 2.344 0 0 1-2.34-2.25c-.24-6.03-3.872-9.061-6.016-10.331-3.565-2.112-7.99-2.421-11.276-.788a2.344 2.344 0 1 1-2.086-4.197c4.745-2.358 10.78-1.992 15.751.953 5.041 2.987 8.071 8.154 8.31 14.177a2.344 2.344 0 0 1-2.344 2.437"/></g></svg>
