<svg xmlns="http://www.w3.org/2000/svg" viewBox="0 0 1024 1024" width="422" height="422" style="width:100%;height:100%;transform:translate3d(0,0,0);content-visibility:visible"><defs><clipPath id="a"><path d="M0 0h1024v1024H0z"/></clipPath><clipPath id="b"><path d="M0 0h1920v1080H0z"/></clipPath><clipPath id="d"><path d="M0 0h1920v1080H0z"/></clipPath><clipPath id="c"><path d="M0 0h1920v1080H0z"/></clipPath></defs><g clip-path="url(#a)"><g clip-path="url(#b)" transform="translate(-933.984 -364.241)scale(1.45415)" style="display:block"><g opacity=".2" style="display:block"><path fill="#000072" d="M1229.003 826.573c0 19.313-102.342 34.969-228.588 34.969s-228.588-15.656-228.588-34.969 102.342-34.969 228.588-34.969 228.588 15.656 228.588 34.969" opacity="1"/></g><path fill="#000072" d="M-20.601 103.541a3.9 3.9 0 0 0 1.421-.449c20.415-11.133 33.914-27.73 40.12-49.329 6.159-21.434 5.119-47.606-3.093-77.79C11.231-48.35-.114-75.171-14.959-101.591a3.864 3.864 0 0 0-6.736 3.785C-6.148-70.138 28.403-.192 13.514 51.628c-5.615 19.54-17.859 34.573-36.393 44.68a3.864 3.864 0 0 0 2.278 7.233" transform="translate(1118.639 723.135)" style="display:block"/><g opacity=".3" style="display:block"><path fill="#000072" d="M983.116 635.371c9.525 0 18.842-.43 27.906-1.276 44.686-5.777 82.059-22.84 103.286-54.621l-.002.001a132 132 0 0 1-5.211 2.943l-.319.171c-5.355 2.852-10.993 5.394-16.883 7.635l-.383.146a168 168 0 0 1-5.822 2.077l-.312.103a184 184 0 0 1-12.235 3.608l-.473.123a204 204 0 0 1-6.114 1.461l-.676.148c-2.092.459-4.2.894-6.333 1.295l-.053.01c-2.138.402-4.299.771-6.477 1.116l-.532.087c-2.093.327-4.207.624-6.334.899l-.996.127q-3.167.399-6.38.723l-.732.069q-3.175.31-6.393.551l-.465.036a289 289 0 0 1-7.75.452q-3.215.148-6.467.229l-1.141.023c-2.261.047-4.53.078-6.814.078-1.665 0-3.323-.017-4.976-.042q-.72-.012-1.438-.027a326 326 0 0 1-3.721-.095q-.69-.02-1.378-.044a300 300 0 0 1-4.89-.213l-.423-.025q-2.228-.121-4.439-.275-.698-.049-1.395-.101a277 277 0 0 1-3.708-.3q-.601-.051-1.201-.105a269 269 0 0 1-4.774-.48l-.601-.07a258 258 0 0 1-4.132-.5q-.645-.083-1.288-.171-1.891-.254-3.764-.536c-.317-.048-.637-.092-.953-.141a234 234 0 0 1-4.655-.766l-.644-.117a230 230 0 0 1-5.079-.967 211 211 0 0 1-3.881-.822l-.632-.138a203 203 0 0 1-4.52-1.071q-.32-.081-.638-.164a191 191 0 0 1-3.787-.998l-.969-.268a184 184 0 0 1-4.027-1.175l-.258-.077a177 177 0 0 1-4.358-1.399q-.298-.1-.594-.203a170 170 0 0 1-4.439-1.574 157 157 0 0 1-8.197-3.3l-.541-.24a147 147 0 0 1-3.486-1.592q-.311-.146-.621-.294a137 137 0 0 1-7.689-3.979q-.244-.137-.487-.276a129 129 0 0 1-3.302-1.928l-.46-.277a122 122 0 0 1-7.112-4.685l-.433-.31a114 114 0 0 1-3.091-2.296l-.31-.236a110 110 0 0 1-6.463-5.41q-.196-.178-.39-.357a108 108 0 0 1-2.841-2.687l-.178-.173a104 104 0 0 1-5.745-6.156l-.351-.411q-1.303-1.528-2.55-3.111l-.067-.085a102 102 0 0 1-2.624-3.499l-.001-.001a102 102 0 0 1-2.255-3.292l-.328-.502a102 102 0 0 1-1.985-3.18q-.089-.143-.176-.288a104 104 0 0 1-3.968-7.344q-.15-.308-.297-.618a104 104 0 0 1-1.497-3.246l-.285-.646a110 110 0 0 1-3.081-7.95q-.127-.377-.252-.755a114 114 0 0 1-1.07-3.356q-.15-.49-.295-.984a120 120 0 0 1-1.031-3.742c-.039-.154-.083-.304-.122-.458q-.545-2.153-1.022-4.364c-.061-.279-.114-.564-.173-.845a132 132 0 0 1-1.46-8.344c-.051-.36-.108-.717-.157-1.079a145 145 0 0 1-.551-4.635c-.025-.246-.043-.498-.067-.744a152 152 0 0 1-.332-3.984q-.051-.748-.095-1.503-.105-1.743-.173-3.516c-.019-.491-.041-.979-.055-1.473-.048-1.639-.08-3.292-.08-4.969 0-7.676.518-15.226 1.503-22.622.058-.438.113-.879.174-1.316a169 169 0 0 1 3.653-18.43l.056-.226c.728-2.82 1.534-5.606 2.401-8.364a169 169 0 0 1 3.373-9.714l-.007.009a164 164 0 0 0-3.489 4.994l-.071.105a167 167 0 0 0-3.324 5.16l-.031.049a167 167 0 0 0-6.147 10.837l-.001.003a167 167 0 0 0-6.18 13.313l-.078.19a164 164 0 0 0-1.766 4.483v.001a166 166 0 0 0-1.634 4.534l-.124.365a167 167 0 0 0-1.46 4.464l-.021.068q-.702 2.266-1.342 4.558l-.154.56q-.609 2.199-1.159 4.423l-.036.141a168 168 0 0 0-1.052 4.568l-.16.75a171 171 0 0 0-.873 4.39l-.039.202a172 172 0 0 0-.768 4.574l-.139.92a171 171 0 0 0-.601 4.391l-.03.229a169 169 0 0 0-.583 5.641 173 173 0 0 0-.34 4.478l-.012.171a173 173 0 0 0-.245 5.767 173 173 0 0 0-.071 4.682c0 1.677.032 3.329.08 4.968.014.493.036.982.055 1.472a159 159 0 0 0 .6 8.996c.024.249.043.504.068.752q.24 2.343.55 4.631c.049.364.106.722.158 1.084a135 135 0 0 0 .77 4.786q.322 1.793.688 3.548c.059.283.113.569.174.851q.475 2.209 1.021 4.361c.039.156.084.309.124.465q.488 1.89 1.029 3.734.147.496.296.989.513 1.693 1.069 3.348l.253.76a110 110 0 0 0 3.08 7.948q.142.324.286.646.725 1.643 1.496 3.245.147.31.298.619a103 103 0 0 0 3.968 7.344l.172.284a101 101 0 0 0 2.314 3.682 101 101 0 0 0 2.257 3.294v.001c28.448 33.537 77.559 47.614 133.384 47.614" opacity="1"/></g><path fill="#FFF" d="m38.424 107.969-81.513-3.863c-97.684-3.598-107.596-76.614-90.907-147.487 4.835-20.563 11.91-40.95 19.736-59.394 0 0 106.536 51.781 213.75-5.194 91.389 169.543 1.776 213.8 1.776 213.8z" transform="translate(994.362 725.179)" style="display:block"/><g opacity=".3" style="display:block"><path fill="#000072" d="m1108.358 762.512-18.604 65.919c-79.24-2.914-244.975 31.409-235.58-106.754 11.041 54.65 193.984 58.573 254.184 40.835" opacity="1"/></g><path fill="#60537B" d="M-6.504 46.02c-75.366 4.404-120.587-26.513-120.587-26.513 4.835-20.563 11.909-40.95 19.735-59.394 0 0 102.352 44.208 212.918-9.272C191.25 75.972-6.504 46.02-6.504 46.02" transform="translate(987.458 662.292)" style="display:block"/><path fill="#60537B" d="m27.819 40.547-16.535-.022c-27.208.828-36.91-16.136-38.764-34.448-.729-7.318-.221-14.846.938-21.535 3.422-19.846 23.731-36.425 37.826-15.177L14.552.447l2.66 25.299z" transform="translate(919.105 786.75)" style="display:block"/><g opacity=".55" style="display:block" fill="#FFF"><path d="m938.364 820.18 5.098 7.113 3.462.004-9.154-12.774zm-44.691-19.669c-.729-7.318-.221-14.845.938-21.534 3.306-19.175 22.375-35.292 36.374-17.197l-.595-5.665c-14.095-21.248-34.405-4.669-37.826 15.177-1.159 6.689-1.667 14.217-.938 21.535.433 4.281 1.303 8.484 2.717 12.407a60 60 0 0 1-.67-4.723" opacity="1"/></g><path fill="#60537B" d="M54.394 24.839c-.916 7.439-3.996 14.029-8.488 19.305C36.403 55.347 20.542 60.657 5.431 55.69-20.033 47.323-15.22 13.702 19.913-3.506a79 79 0 0 1 2.571-1.214l-6.225.927-32.186-2.538-38.775-21.414 42.175-16.468 23.543-13.344c22.219 19.316 46.722 55.21 43.378 82.396" transform="translate(1082.003 670.69)" style="display:block"/><path fill="#60537B" d="M-14.61-21.002c27.991-34.452 50.893-2.167 32.241 36.284-14.185 25.844-32.526 22.323-42.03 15.072" transform="translate(1113.183 792.806)" style="display:block"/><g opacity=".3" style="display:block"><path fill="#000072" d="M1137.127 787.727c-.828 6.314-2.848 13.235-6.314 20.365-14.183 25.839-32.529 22.318-42.032 15.066l9.791-51.358a72 72 0 0 1 3.146-3.621l-6.59 34.559c9.492 7.252 27.827 10.773 41.999-15.011" opacity="1"/></g><g opacity=".55" style="display:block"><path fill="#FFF" d="M1131.431 806.779c10.155-32.572-9.569-56.093-34.04-28.775l1.181-6.204c27.672-34.051 50.365-2.891 32.859 34.979" opacity="1"/></g><g clip-path="url(#c)" style="display:block"><path fill="#60537B" d="M54.989-37.928c-70.674-71.484-161.184 37.174-74.394 99.35" transform="translate(844.781 411.876)" style="display:block"/><path d="m797.181 389.884.004.042zm.024.247.006.046zm59.292 28.938c.332-.239.658-.464.994-.711-43.735 32.182-56.147-6.019-59.317-22.043-4.612 22.964 3.532 49.826 32.392 71.422l25.313-33.806 1.603-15.48c-.328.206-.661.421-.985.618m-59.309-29.115.006.072z" style="display:block" fill="#000072"/><path fill="#60537B" d="M-59.044-32.689c58.021-67.937 170.555 8.498 90.013 91.544" transform="translate(1095.628 395.917)" style="display:block"/><path fill="#000072" d="M10.814 39.82c2.926-.19 5.965-.902 5.965-.902S41.6 23.892 46.677-13.552l.005-.007C36.885-1.054 12.274 9.759-46.682-40.89L-16.65 4.53l8.988 23.22S9.056 37.803 10.933 39.942c.587.669 1.878.919 3.375.948-1.497-.029-2.788-.279-3.375-.948-.032-.036-.079-.081-.119-.122" transform="translate(1100.08 412.616)" style="display:block"/><path fill="#000072" d="M-19.405 65.211c-.766 0-1.539-.23-2.21-.71-27.387-19.62-40.651-46.556-36.391-73.902 3.84-24.646 21.303-45.413 44.49-52.907 23.961-7.742 49.916.165 71.208 21.701a3.798 3.798 0 0 1-5.402 5.34C32.806-54.974 10.268-62.01-11.181-55.079c-20.484 6.62-35.918 25.008-39.32 46.847-2.234 14.345-.877 42.066 33.311 66.558a3.798 3.798 0 0 1-2.215 6.885" transform="translate(844.779 411.885)" style="display:block"/><path fill="#000072" d="M30.96 62.675a3.8 3.8 0 0 1-2.726-6.443C51.043 32.713 59.828 7.47 52.968-14.848 46.987-34.307 29.761-49.194 8.014-53.7c-23.816-4.935-47.21 3.629-64.179 23.499a3.796 3.796 0 0 1-5.354.421 3.797 3.797 0 0 1-.422-5.354c18.824-22.04 44.884-31.518 71.497-26.004 24.462 5.069 43.877 21.95 50.672 44.058 7.711 25.087-1.715 53.002-26.542 78.601a3.8 3.8 0 0 1-2.726 1.154" transform="translate(1095.637 395.895)" style="display:block"/></g><path fill="#FFF" d="M159.313 19.425c0 91.034-71.327 125.982-159.313 125.982s-159.313-34.948-159.313-125.982S-87.986-145.407 0-145.407 159.313-71.609 159.313 19.425" transform="translate(979.027 497.542)" style="display:block"/><path fill="#000072" d="M0 149.205c-47.426 0-87.132-10.213-114.825-29.536-32.041-22.357-48.286-56.084-48.286-100.244 0-92.983 73.171-168.63 163.111-168.63S163.611-71.9 163.611 21.083c0 44.16-26.638 86.426-48.786 98.875C86.081 136.115 47.426 149.205 0 149.205m0-290.814c-85.751 0-155.516 72.24-155.516 161.034 0 41.531 15.153 73.162 45.038 94.014 26.412 18.429 64.615 28.17 110.478 28.17s84.066-9.741 110.478-28.17c29.885-20.852 45.038-52.483 45.038-94.014 0-88.794-69.765-161.034-155.516-161.034" transform="translate(979.027 497.542)" style="display:block"/><path fill="#60537B" d="M27.582 16.546c-69.363 15.581-69.916-58.372-20.626-27.78" transform="translate(855.425 790.767)" style="display:block"/><g opacity=".55" style="display:block"><path fill="#FFF" d="m864.429 785.675 16.401 22.09c.722-.146 1.44-.286 2.177-.452l-20.626-27.78c-27.945-17.344-39.859-1.085-32.305 13.411-1.825-12.273 10.352-22.165 34.353-7.269" opacity="1"/></g><path fill="#60537B" d="M28.267 17.118C18.764 28.321 2.903 33.631-12.208 28.664-37.672 20.297-32.86-13.324 2.273-30.532z" transform="translate(1099.642 697.716)" style="display:block"/><g opacity=".55" style="display:block"><path fill="#FFF" d="M1136.397 695.529c-.916 7.439-3.996 14.029-8.488 19.305-5.541 6.534-13.245 11.059-21.7 12.715a38 38 0 0 0 12.572-9.68c4.492-5.276 7.572-11.866 8.488-19.305 2.731-22.255-13.183-50.329-31.232-70.382-3.109-3.455-2.966-8.745.26-12.091 21.281 19.857 43.279 53.588 40.1 79.438" opacity="1"/></g><path fill="#000072" d="M-4.981 61.419c-4.314 0-8.643-.68-12.841-2.059-11.297-3.713-18.103-12.121-18.673-23.069C-37.38 19.264-23.501 1.784-1.137-8.241a3.863 3.863 0 0 1 3.161 7.05C-20.07 8.714-29.368 24.569-28.779 35.89c.401 7.699 5.149 13.427 13.37 16.129 9.564 3.144 19.988 1.812 28.6-3.651 8.524-5.407 14.109-14.156 15.325-24.005C31.585-.521 9.13-34.914-13.558-54.64a3.863 3.863 0 0 1 5.07-5.831c20.059 17.441 48.51 54.678 44.672 85.78-1.498 12.151-8.372 22.934-18.855 29.583-6.802 4.314-14.53 6.527-22.31 6.527" transform="translate(1104.044 670.69)" style="display:block"/><path fill="#000072" d="M25.541 102.801a3.9 3.9 0 0 1-1.462-.288C2.556 93.709-12.697 78.709-21.257 57.93c-8.495-20.62-10.359-46.745-5.541-77.653 3.882-24.906 12.186-52.819 24.014-80.721a3.864 3.864 0 0 1 7.113 3.016C-8.058-68.209-34.651 5.135-14.114 54.987-6.37 73.785 7.465 87.369 27.004 95.361a3.864 3.864 0 0 1-1.463 7.44" transform="translate(879.329 721.34)" style="display:block"/><path fill="#000072" d="m63.133 4.868-.883-.002C17.162 4.59-26.271 3.898-66.846 2.809-79.577 2.468-88.224.484-86.163-1.622c2.066-2.107 14.091-3.538 26.786-3.195C-20.694-3.78 20.812-3.12 63.979-2.856c12.888.079 22.948 1.872 22.471 4.004-.465 2.083-10.821 3.72-23.317 3.72" transform="translate(1012.991 828.28)" style="display:block"/><path fill="#000072" d="M12.424 44.413c-13.298 0-23.626-4.135-30.725-12.309-13.051-15.026-10.651-38.729-9.013-48.222 2.4-13.911 11.928-25.646 22.654-27.903 4.831-1.017 14.137-.907 22.199 11.247a3.863 3.863 0 1 1-6.438 4.271c-2.905-4.379-7.719-9.312-14.17-7.958-7.503 1.579-14.809 11.092-16.632 21.657-1.45 8.407-3.648 29.314 7.233 41.842 5.857 6.744 14.824 9.983 26.671 9.621l.159-.002c4.487.063 6.15-1.741 7.052-3.305a3.864 3.864 0 0 1 6.694 3.86c-1.907 3.308-5.878 7.254-13.748 7.172q-.978.029-1.936.029" transform="translate(916.07 786.754)" style="display:block"/><path fill="#000072" d="M-9.348 39.497c-6.101 0-12.234-2.098-17.426-6.059a3.863 3.863 0 1 1 4.687-6.143c2.339 1.785 8.635 5.752 16.546 4.08 7.417-1.57 14.048-7.577 19.707-17.854 9.865-20.401 7.184-38.616-.969-43.807-6.317-4.022-15.604.364-24.841 11.732a3.863 3.863 0 0 1-5.996-4.872C-5.685-38.14 7.393-43.141 17.346-36.804c11.044 7.032 16.106 28.272 3.73 53.784a4 4 0 0 1-.089.173C14.185 29.544 5.798 36.873-3.942 38.934a26 26 0 0 1-5.406.563" transform="translate(1113.214 792.793)" style="display:block"/><path fill="#000072" d="M9.118 22.613c-20.333 0-32.686-8.747-37.85-18.528-4.284-8.115-3.412-17.064 2.169-22.269 3.561-3.321 14.154-9.611 35.545 3.665a3.864 3.864 0 0 1-4.075 6.565c-13.772-8.548-22.567-7.97-26.2-4.58-2.996 2.795-3.24 8.023-.607 13.011 5.056 9.576 20.826 18.541 48.624 12.298a3.867 3.867 0 0 1 4.616 2.922 3.864 3.864 0 0 1-2.923 4.616c-7.089 1.592-13.518 2.3-19.299 2.3" transform="translate(855.437 790.769)" style="display:block"/><g clip-path="url(#d)" transform="translate(-.56 -.28)" style="display:block"><g style="display:block"><path fill="#FFF" d="M960.997 364.552c7.45-48.842 54.742-31.977 33.389-2.207"/><path fill="#000072" d="m961.503 364.628-1.012-.154c2.585-16.951 10.608-28.487 21.459-30.86 6.47-1.412 12.788.926 16.103 5.963 4.042 6.143 2.857 14.55-3.251 23.066l-.832-.597c5.847-8.152 7.024-16.136 3.227-21.906-3.079-4.679-8.977-6.848-15.028-5.526-10.42 2.279-18.147 13.499-20.666 30.014"/></g><g style="display:block"><path fill="#FFF" d="M998.473 354.874c22.679-21.157 42.183 9.96 8.882 16.852"/><path fill="#000072" d="m1007.459 372.227-.208-1.002c10.038-2.077 16.514-6.82 17.325-12.687.51-3.692-1.452-7.267-4.999-9.108-5.843-3.032-13.599-.856-20.755 5.818l-.698-.749c7.486-6.983 15.683-9.215 21.925-5.978 3.937 2.043 6.112 6.03 5.541 10.157-.873 6.315-7.651 11.38-18.131 13.549"/></g><g style="display:block"><path fill="#FFF" d="M1016.557 368.641c25.567 8.328 8.612 32.887-7.546 14.675"/><path fill="#000072" d="M1020.986 390.405c-4.055 0-8.461-2.359-12.357-6.749l.766-.68c4.803 5.414 10.353 7.579 14.854 5.789 3.083-1.228 5.008-4.146 4.903-7.437-.163-5.091-4.931-9.652-12.753-12.2l.318-.973c8.249 2.688 13.28 7.599 13.457 13.14.119 3.727-2.058 7.032-5.547 8.421a9.8 9.8 0 0 1-3.641.689"/></g><path fill="#000072" d="M-19.424 19.215a3.798 3.798 0 0 1-3.76-4.371c2.799-18.349 11.773-30.9 24.006-33.575 7.809-1.708 15.482 1.185 19.55 7.367 4.759 7.235 3.517 17.248-3.326 26.787a3.799 3.799 0 0 1-6.172-4.427c5.01-6.986 6.159-13.614 3.152-18.185-2.324-3.534-6.87-5.152-11.582-4.122C-6.595-9.334-13.369.872-15.675 15.99a3.8 3.8 0 0 1-3.749 3.225" transform="translate(980.427 349.135)" style="display:block"/><path fill="#000072" d="M-4.47 15.877a3.8 3.8 0 0 1-.766-7.518C4.907 6.26 9.027 1.858 9.499-1.56c.323-2.332-.926-4.532-3.257-5.742-3.515-1.824-9.826-1.387-16.999 5.305a3.799 3.799 0 0 1-5.182-5.554c8.548-7.975 18.146-10.402 25.68-6.493 5.187 2.693 8.046 8.001 7.283 13.524-.515 3.723-3.564 12.766-20.721 16.317q-.39.08-.773.08" transform="translate(1011.822 359.648)" style="display:block"/><path fill="#000072" d="M1.637 14.427c-4.991.001-10.262-2.738-14.806-7.86a3.798 3.798 0 0 1 5.682-5.041C-3.64 5.861.539 7.699 3.694 6.442c1.781-.709 2.893-2.389 2.833-4.279-.09-2.816-2.892-6.706-10.485-9.18a3.797 3.797 0 0 1-2.434-4.787 3.797 3.797 0 0 1 4.787-2.436C8.018-11.105 13.896-5.064 14.12 1.92c.164 5.127-2.827 9.672-7.617 11.579a13.1 13.1 0 0 1-4.866.928" transform="translate(1019.339 379.27)" style="display:block"/></g><path fill="#60537B" d="M41.587-5.802c8.209 29.664-6.228 49.582-22.353 53.674-7.917 2.009-16.18-1.745-20.024-8.951Q-15.702 10.967-37.442-7.228c-5.154-4.314-7.636-11.144-6.043-17.674 5.632-23.086 39.163-32.862 65.043-12.196 9.913 7.916 16.646 19.07 20.029 31.296" transform="translate(1068.074 478.419)" style="display:block"/><path fill="#000072" d="M14.132 18.16c-1.38 3.367-1.691 4.289-3.275 4.995-2.648 1.181-4.152 2.254-7.439 1.825-3.366-.441-6.958-3.895-11.04-7.912-1.495-1.471-3.633-6.793-4.209-8.81-.835-2.923-.023-8.592.935-10.458 2.356-4.59 6.442-8.823 12.923-7.977 3.752.49 9.952.795 13.509 13.244.577 2.017 1.035 4.665.267 8.321-.593 2.822-.718 4.447-1.671 6.772" transform="translate(1061.04 474.79)" style="display:block"/><path fill="#60537B" d="M43.465-15.158C27.419-1.997 18.179 17.9 14.066 42.871 12.914 49.867 7.481 55.363.531 56.768c-34.98 7.07-61.98-30.766-44.806-73.127 22.61-54.825 80.379-48.76 92.658-18.084 2.716 6.786.733 14.65-4.918 19.285" transform="matrix(.9 0 0 .9 929.38 487.662)" style="display:block"/><path fill="#000072" d="M-20.812 7.881C-17.595-4.574-9.379-12.625.12-12.63h.009c7.427 0 13.637 10.968 10.931 20.757-.559 2.022-7.192 16.103-9.222 16.63-2.028.528-1.354 2.587-8.463 3.459s-8.109-2.629-12.082-7.436c-1.127-1.363-2.629-10.868-2.105-12.899" transform="translate(930.984 477.412)" style="display:block"/><path fill="#000072" d="M18.074-4.431c0 8.146-8.092 19.188-18.074 19.188S-18.074 3.715-18.074-4.431-9.982-14.757 0-14.757s18.074 2.18 18.074 10.326" transform="translate(999.767 506.254)" style="display:block"/><path fill="#000072" d="M3.799-5.195 1.104 8.878a1.122 1.122 0 0 1-2.207 0L-3.797-5.195a3.867 3.867 0 1 1 7.596 0" transform="translate(999.766 520.688)" style="display:block"/><g opacity=".3" style="display:block"><path fill="#000072" d="m946.925 827.298-16.535-.022c-27.208.828-36.911-16.137-38.765-34.449l.011-.022c16.678 16.093 30.685 17.263 40.299-6.06l1.722.453 2.66 25.298z" opacity="1"/></g><g opacity=".3" style="display:block"><path fill="#000072" d="M860.024 783.143s1.561 25.224-29.601 3.602l.965 5.756 14.871 13.877 9.166 3.119 14.862-1.642 3.783-.83 2.359-3.264-2.048-6.142-5.89-7.718-6.393-6.613z" opacity="1"/></g><g opacity=".5" style="display:block"><path fill="#FFF" d="M1004.928 498.624c.024 1.064-2.739 2.554-6.186 2.631s-6.272-1.29-6.296-2.354 2.768-1.216 6.215-1.293 6.243-.048 6.267 1.016" opacity="1"/></g><path fill="#000072" d="M45.558 17.293a45 45 0 0 1-5.397 5.123C29.765 30.711 16.003 34.184 2.439 34.615c-15.076.486-32.249-.479-41.353-8.415-2.685-2.451-5.005-4.895-7.007-7.333-25.213-30.575.373-58.655 23.101-50.607 13.961 5.815 29.842 6.615 42.648-.763 24.164-10.798 52.406 19.811 25.73 49.796" transform="translate(999.838 560.824)" style="display:block"/><path fill="#FF2B4A" d="M43.036 5.416C32.64 13.711 18.877 17.183 5.313 17.614c-15.076.486-32.248-.479-41.352-8.415-2.685-2.451-5.006-4.895-7.008-7.333 1.174-28.368 87.246-24.818 86.083 3.55" transform="translate(996.964 577.824)" style="display:block"/><g style="display:block"><path fill="#792937" d="m1987.176 1270.205-.022-.011s0-.011.011-.011c0 0 .011.011.011.022"/><path fill="#000072" d="m1987.686 1271.191-1.046-.523v-.828l.75-.011.286.314zm-.522-.82v.482zm-.502-.008h.478z"/><path fill="#792937" d="m1987.176 1270.205-.022-.011s0-.011.011-.011c0 0 .011.011.011.022"/><path fill="#000072" d="m1987.686 1271.191-1.046-.523v-.828l.75-.011.286.314zm-.522-.82v.482zm-.502-.008h.478z"/><path fill="#FFDF81" d="M1099.205 673.175s-12.175 8.61-15.078 12.23l-145.941-.563c-18.323-20.056 4.029-42.682 20.034-29.437-.21-7.583 8.432-12.595 14.238-9.416 3.565-13.168 15.276-16.523 22.495-9.382-.011 0-.011.011-.011.011l.022.011c0-.011-.011-.022-.011-.022 9.636-14.04 40.806-13.753 47.981 8.411 9.117-7.726 21.767-6.082 22.197 6.512 12.881-6.391 33.29 1.976 34.074 21.645"/><path fill="#FFF" d="M1022.325 658.074c2.019 1.636.093 4.748-2.314 3.769-1.334-.543-2.954-.873-4.906-.906-7.324-.123-10.279 4.755-11.661 8.164a2.25 2.25 0 0 1-1.946 1.41 2.2 2.2 0 0 1-1.704-.645c-1.748-1.776-4.278-3.545-7.175-1.52-1.066.747-1.711 1.754-2.087 2.807l-.325.019s-1.161-5.443 2.412-7.944c4.913-3.439 8.787 4.058 9.546 3.969s1.761-11.562 12.94-11.377c3.261.054 5.593.936 7.22 2.254"/><path fill="#000072" d="M989.373 671.347c-.457-1.325-.626-2.627-.578-4.054.108-1.394.462-2.938 1.452-4.251 1.005-1.278 2.3-2.338 4.168-2.708a6.24 6.24 0 0 1 2.739.122 8.6 8.6 0 0 1 2.282 1.01c1.325.841 2.318 1.871 3.204 2.816l.614.659c.09.093.173.176.229.226.011.007.043.031.008-.003a1.6 1.6 0 0 0-.501-.293 2.2 2.2 0 0 0-1.151-.139 2.25 2.25 0 0 0-1.236.547l-.135.127a1.5 1.5 0 0 0-.292.366c-.033.057-.021.03-.032.05a.3.3 0 0 0-.029.055l.08-.24.27-.841c.769-2.466 1.995-5.159 4.084-7.308 1.04-1.069 2.271-2.013 3.641-2.674 1.364-.675 2.84-1.049 4.278-1.222 1.446-.176 2.853-.121 4.233.05 1.387.176 2.791.58 4.143 1.151 1.324.669 2.63 1.487 3.586 2.68.962 1.152 1.715 2.468 2.081 3.855.734 2.76.559 5.558-.508 8.037a.857.857 0 0 1-1.638-.456l.007-.042c.309-2.23-.038-4.565-.907-6.427a7.6 7.6 0 0 0-1.758-2.347l-.549-.446-.617-.356a2.7 2.7 0 0 0-.636-.32l-.661-.282c-.948-.275-1.936-.473-2.994-.497-1.06-.058-2.117-.041-3.099.146-1.967.37-3.633 1.222-4.934 2.632-1.304 1.425-2.215 3.285-2.984 5.451l-.325.898a9 9 0 0 1-.251.617l-.132.26-.086.151a3.5 3.5 0 0 1-.427.552s-.083.084-.156.145a2.76 2.76 0 0 1-1.361.618 2.8 2.8 0 0 1-1.32-.167 3.5 3.5 0 0 1-.611-.334l-.27-.215c-.151-.133-.229-.217-.327-.317-.157-.17-.279-.315-.392-.451l-.588-.732c-.716-.903-1.419-1.676-2.122-2.224-.704-.567-1.306-.837-1.883-.821-.575-.023-1.454.357-2.05.909-1.279 1.091-1.874 3.463-1.89 5.681l-.001.082a.857.857 0 0 1-1.668.274"/><path fill="#FF2B4A" d="M980.339 684.842h117.534c6.799 0 12.106 5.882 11.409 12.645l-11.925 115.772c-1.183 11.486-10.86 20.217-22.406 20.217h-79.292"/><path fill="#FFF" d="m1089.197 705.566-14.024 111.668a2.38 2.38 0 0 1-2.358 2.081h-11.949a2.366 2.366 0 0 1-2.351-2.628l12.436-111.678a2.366 2.366 0 0 1 2.352-2.104h13.547a2.366 2.366 0 0 1 2.347 2.661"/><path fill="#000072" d="m1109.282 695.444-11.921 115.764c-1.192 11.49-10.861 20.221-22.406 20.221H995.66l-15.321-148.634h1.501l13.82 134.02h79.295c11.545 0 21.214-8.731 22.406-20.221l11.016-106.945a11.44 11.44 0 0 1 .905 5.795"/><path fill="#FFF" d="m1109.282 696.468-.486 4.691c-1.479-4.581-5.772-7.958-10.927-7.958h-44.019c-1.49-5.364-6.413-9.382-12.351-9.382h56.37c6.799 0 12.108 5.883 11.413 12.649"/><path fill="#000072" d="M1074.951 837.34h-79.292a3.863 3.863 0 1 1 0-7.726h79.292c9.6 0 17.579-7.201 18.563-16.75l11.925-115.772a7.52 7.52 0 0 0-1.919-5.875 7.52 7.52 0 0 0-5.647-2.511H980.339a3.864 3.864 0 1 1 0-7.726h117.534a15.36 15.36 0 0 1 11.384 5.061 15.36 15.36 0 0 1 3.868 11.842L1101.2 813.656a26.32 26.32 0 0 1-26.249 23.684"/><path fill="#FF2B4A" d="M1022.026 833.48h-60.914c-11.546 0-21.223-8.731-22.406-20.216l-11.929-115.781c-.697-6.764 4.61-12.645 11.409-12.645h103.318c7.604 0 13.537 6.577 12.758 14.141l-11.975 116.22c-1.07 10.386-9.82 18.281-20.261 18.281"/><path fill="#FFF" d="M978.998 705.288v111.644a2.38 2.38 0 0 1-2.382 2.383h-12.414q-.607 0-1.205-.033c-1.193-.065-2.13-1.052-2.197-2.244l-6.278-111.617a2.38 2.38 0 0 1 2.379-2.516h19.715a2.38 2.38 0 0 1 2.382 2.383m47.985.134-6.287 111.644a2.383 2.383 0 0 1-2.379 2.249h-13.355a2.383 2.383 0 0 1-2.383-2.383V705.288a2.383 2.383 0 0 1 2.383-2.383h19.642a2.383 2.383 0 0 1 2.379 2.517"/><path fill="#000072" d="m1054.259 696.934-11.976 116.216c-1.071 10.387-9.812 18.279-20.254 18.279h-60.917c-11.546 0-21.226-8.731-22.407-20.21l-11.932-115.786c-.21-2.053.132-4.018.905-5.762l11.027 107.044c1.181 11.479 10.861 20.21 22.407 20.21h60.917c10.442 0 19.183-7.892 20.254-18.278l11.115-107.828a12.7 12.7 0 0 1 .861 6.115"/><path fill="#FFF" d="m1054.259 697.959-.453 4.448c-1.556-5.276-6.435-9.206-12.307-9.206H938.186c-5.155 0-9.448 3.377-10.927 7.947l-.486-4.691c-.695-6.755 4.614-12.638 11.413-12.638h103.313c5.938 0 10.861 4.018 12.351 9.382.43 1.49.586 3.102.409 4.758"/><path fill="#000072" d="M1022.026 837.343h-60.913a26.32 26.32 0 0 1-26.249-23.683l-11.93-115.781a15.36 15.36 0 0 1 3.868-11.843 15.36 15.36 0 0 1 11.384-5.061h103.317c4.716 0 9.233 2.009 12.392 5.51a16.7 16.7 0 0 1 4.209 12.891l-11.974 116.219a24.17 24.17 0 0 1-24.104 21.748m-83.84-148.642a7.52 7.52 0 0 0-5.647 2.511 7.52 7.52 0 0 0-1.919 5.875l11.929 115.781a18.616 18.616 0 0 0 18.564 16.749h60.913c8.49 0 15.548-6.369 16.418-14.814l11.975-116.22a8.86 8.86 0 0 0-2.261-6.923 8.86 8.86 0 0 0-6.655-2.959z"/><path fill="#000072" d="M938.187 688.702a3.85 3.85 0 0 1-2.853-1.258c-11.371-12.444-8.954-26.089-1.896-33.501 6.135-6.443 14.69-8.06 22.238-4.657 2.102-4.336 6.39-7.189 10.552-7.929 6.399-1.136 11.951 2.341 14.142 8.862a3.863 3.863 0 1 1-7.324 2.461c-1.229-3.656-3.649-4.037-5.466-3.715-2.776.493-5.592 2.997-5.499 6.332a3.862 3.862 0 0 1-6.325 3.083c-6.134-5.075-12.818-3.211-16.722.89-4.82 5.063-6.07 14.126 2.004 22.962a3.864 3.864 0 0 1-2.851 6.47"/><path fill="#000072" d="M972.464 649.857q-.502 0-1.011-.135a3.864 3.864 0 0 1-2.721-4.738c2.483-9.181 8.804-15.26 16.495-15.864 7.051-.561 13.471 3.735 16.806 11.185a3.863 3.863 0 0 1-7.052 3.157c-1.992-4.45-5.409-6.939-9.148-6.639-4.342.341-8.036 4.241-9.641 10.178a3.87 3.87 0 0 1-3.728 2.856"/><path fill="#000072" d="M1064.739 660.372q-.339 0-.683-.06a3.864 3.864 0 0 1-3.126-4.481c.952-5.343-.051-9.165-2.823-10.76-3.248-1.868-8.461-.68-12.676 2.89a3.864 3.864 0 0 1-6.173-1.758c-3.761-11.622-14.414-14.364-18.82-15.003-9.15-1.328-18.326 1.797-22.307 7.6a3.864 3.864 0 1 1-6.372-4.37c5.67-8.268 17.637-12.635 29.788-10.877 10.343 1.501 18.669 7.21 23.1 15.612 5.881-3.217 12.411-3.611 17.313-.79 5.722 3.293 8.119 10.149 6.577 18.811a3.865 3.865 0 0 1-3.798 3.186"/><path fill="#000072" d="M1099.201 677.039a3.863 3.863 0 0 1-3.857-3.709c-.396-9.94-6.383-14.936-9.917-17.03-5.877-3.481-13.171-3.991-18.588-1.299a3.863 3.863 0 1 1-3.439-6.918c7.821-3.888 17.77-3.284 25.965 1.57 8.31 4.924 13.304 13.441 13.699 23.369a3.864 3.864 0 0 1-3.863 4.017"/></g><path fill="#60537B" d="M-30.673 18.562c43.429-100.91 94.904-74.154 67.376 1.773 0 0-1.919 8.292-8.029 19.528s-22.869 11.4-45.672 5.081-12.733-12.095-12.733-12.095" transform="rotate(69 2.75 1020.422)" style="display:block"/><path fill="#000072" d="M30.5 66.835c-.438 0-2.263.734-2.698.576-2.006-.727-1.684-3.759-.934-5.757 16.865-44.934 11.353-87.089-2.233-92.475C8.793-37.1-6.938 1.113-29.511 53.481a3.863 3.863 0 0 1-7.096-3.059c26.311-61.037 46.188-95.521 64.09-88.426 17.392 6.895 26.511 44.738 6.649 102.291-.545 1.58-2.053 2.548-3.632 2.548" transform="rotate(69 14.007 1028.246)" style="display:block"/></g></g></svg>